<svg width="80" height="80" viewBox="0 0 80 80" fill="none" xmlns="http://www.w3.org/2000/svg">
<g clip-path="url(#clip0_1806_3259)">
<mask id="mask0_1806_3259" style="mask-type:alpha" maskUnits="userSpaceOnUse" x="0" y="0" width="80" height="80">
<path d="M40 80C62.0914 80 80 62.0914 80 40C80 17.9086 62.0914 0 40 0C17.9086 0 0 17.9086 0 40C0 62.0914 17.9086 80 40 80Z" fill="white"/>
</mask>
<g mask="url(#mask0_1806_3259)">
<path d="M0 22.6094L39.8906 16.9062L80 22.6094V57.3906L39.1406 63.5937L0 57.3906V22.6094Z" fill="#EEEEEE"/>
<path d="M0 0H80V22.6094H0V0Z" fill="#FF9811"/>
<path d="M0 57.3906H80V80H0V57.3906Z" fill="#6DA544"/>
<path d="M40 53.9062C47.6802 53.9062 53.9062 47.6802 53.9062 40C53.9062 32.3198 47.6802 26.0938 40 26.0938C32.3198 26.0938 26.0938 32.3198 26.0938 40C26.0938 47.6802 32.3198 53.9062 40 53.9062Z" fill="#0052B4"/>
<path d="M40 48.7031C44.8066 48.7031 48.7031 44.8066 48.7031 40C48.7031 35.1934 44.8066 31.2969 40 31.2969C35.1934 31.2969 31.2969 35.1934 31.2969 40C31.2969 44.8066 35.1934 48.7031 40 48.7031Z" fill="#EEEEEE"/>
<path d="M40 29.2656L42.6875 35.3594L49.2969 34.6406L45.3594 40L49.2969 45.3594L42.6875 44.6406L40 50.7344L37.3125 44.6406L30.7031 45.3594L34.6406 40L30.7031 34.6406L37.3125 35.3594L40 29.2656Z" fill="#0052B4"/>
</g>
</g>
<circle cx="40" cy="40" r="37" stroke="url(#paint0_radial_1806_3259)" stroke-opacity="0.12" stroke-width="6"/>
<circle cx="40" cy="40" r="34" fill="url(#paint1_radial_1806_3259)" fill-opacity="0.15"/>
<circle cx="40" cy="40" r="34" fill="url(#paint2_radial_1806_3259)" fill-opacity="0.35"/>
<ellipse cx="40" cy="24.5" rx="24" ry="18.5" fill="url(#paint3_linear_1806_3259)" fill-opacity="0.4"/>
<defs>
<radialGradient id="paint0_radial_1806_3259" cx="0" cy="0" r="1" gradientUnits="userSpaceOnUse" gradientTransform="translate(40 40) rotate(90) scale(40)">
<stop/>
<stop offset="1" stop-color="#666666"/>
</radialGradient>
<radialGradient id="paint1_radial_1806_3259" cx="0" cy="0" r="1" gradientUnits="userSpaceOnUse" gradientTransform="translate(40 40) rotate(90) scale(34 26.4711)">
<stop stop-color="#371313"/>
<stop offset="1" stop-color="#D9D9D9" stop-opacity="0.75"/>
</radialGradient>
<radialGradient id="paint2_radial_1806_3259" cx="0" cy="0" r="1" gradientUnits="userSpaceOnUse" gradientTransform="translate(40 40) rotate(90) scale(34 111.625)">
<stop stop-color="#D9D9D9" stop-opacity="0.75"/>
<stop offset="1" stop-color="#371313"/>
</radialGradient>
<linearGradient id="paint3_linear_1806_3259" x1="40" y1="9.08333" x2="40" y2="43" gradientUnits="userSpaceOnUse">
<stop stop-color="#737373" stop-opacity="0"/>
<stop offset="1" stop-color="#D9D9D9"/>
</linearGradient>
<clipPath id="clip0_1806_3259">
<rect width="80" height="80" fill="white"/>
</clipPath>
</defs>
</svg>
