<svg width="80" height="80" viewBox="0 0 80 80" fill="none" xmlns="http://www.w3.org/2000/svg">
<g clip-path="url(#clip0_1806_3283)">
<mask id="mask0_1806_3283" style="mask-type:alpha" maskUnits="userSpaceOnUse" x="0" y="0" width="80" height="80">
<path d="M40 80C62.0914 80 80 62.0914 80 40C80 17.9086 62.0914 0 40 0C17.9086 0 0 17.9086 0 40C0 62.0914 17.9086 80 40 80Z" fill="white"/>
</mask>
<g mask="url(#mask0_1806_3283)">
<path d="M0 0H80V80H0V0Z" fill="#6DA544"/>
<path d="M40 15.6562L73.0469 40L40 64.3437L6.95312 40L40 15.6562Z" fill="#FFDA44"/>
<path d="M27.2186 34.5312C26.4412 36.3193 26.0575 38.2536 26.0936 40.2031L51.4061 47.9843C52.5213 46.3914 53.288 44.5812 53.6561 42.6718C47.3124 32.4687 34.953 30.1249 27.2343 34.5468L27.2186 34.5312Z" fill="#EEEEEE"/>
<path d="M39.9531 26.0938C37.6679 26.0996 35.4193 26.6684 33.4063 27.7501C30.6356 29.2449 28.4542 31.6357 27.2187 34.5313C31.9529 33.5261 36.8654 33.7477 41.4898 35.1752C46.1142 36.6027 50.2969 39.1887 53.6406 42.6876C54.2618 39.5243 53.7647 36.2435 52.2344 33.4063C51.0408 31.19 49.268 29.3392 47.1052 28.0514C44.9423 26.7636 42.4704 26.087 39.9531 26.0938V26.0938ZM33.125 39.1407C30.7407 39.1327 28.3693 39.491 26.0938 40.2032C26.12 42.4341 26.6828 44.626 27.7344 46.5938C28.5997 48.203 29.7737 49.6259 31.1893 50.7812C32.6048 51.9365 34.2341 52.8015 35.9841 53.3268C37.7341 53.8521 39.5705 54.0274 41.3883 53.8426C43.2061 53.6579 44.9696 53.1167 46.5781 52.25C48.4879 51.2217 50.1306 49.7609 51.375 47.9844C49.1819 45.2462 46.4057 43.0316 43.2487 41.5017C40.0916 39.9718 36.6331 39.1652 33.125 39.1407V39.1407Z" fill="#0052B4"/>
</g>
</g>
<circle cx="40" cy="40" r="37" stroke="url(#paint0_radial_1806_3283)" stroke-opacity="0.12" stroke-width="6"/>
<circle cx="40" cy="40" r="34" fill="url(#paint1_radial_1806_3283)" fill-opacity="0.15"/>
<circle cx="40" cy="40" r="34" fill="url(#paint2_radial_1806_3283)" fill-opacity="0.35"/>
<ellipse cx="40" cy="24.5" rx="24" ry="18.5" fill="url(#paint3_linear_1806_3283)" fill-opacity="0.4"/>
<defs>
<radialGradient id="paint0_radial_1806_3283" cx="0" cy="0" r="1" gradientUnits="userSpaceOnUse" gradientTransform="translate(40 40) rotate(90) scale(40)">
<stop/>
<stop offset="1" stop-color="#666666"/>
</radialGradient>
<radialGradient id="paint1_radial_1806_3283" cx="0" cy="0" r="1" gradientUnits="userSpaceOnUse" gradientTransform="translate(40 40) rotate(90) scale(34 26.4711)">
<stop stop-color="#371313"/>
<stop offset="1" stop-color="#D9D9D9" stop-opacity="0.75"/>
</radialGradient>
<radialGradient id="paint2_radial_1806_3283" cx="0" cy="0" r="1" gradientUnits="userSpaceOnUse" gradientTransform="translate(40 40) rotate(90) scale(34 111.625)">
<stop stop-color="#D9D9D9" stop-opacity="0.75"/>
<stop offset="1" stop-color="#371313"/>
</radialGradient>
<linearGradient id="paint3_linear_1806_3283" x1="40" y1="9.08333" x2="40" y2="43" gradientUnits="userSpaceOnUse">
<stop stop-color="#737373" stop-opacity="0"/>
<stop offset="1" stop-color="#D9D9D9"/>
</linearGradient>
<clipPath id="clip0_1806_3283">
<rect width="80" height="80" fill="white"/>
</clipPath>
</defs>
</svg>
