<svg width="80" height="80" viewBox="0 0 80 80" fill="none" xmlns="http://www.w3.org/2000/svg">
<g clip-path="url(#clip0_1806_3273)">
<mask id="mask0_1806_3273" style="mask-type:alpha" maskUnits="userSpaceOnUse" x="0" y="0" width="80" height="80">
<path d="M40 80C62.0914 80 80 62.0914 80 40C80 17.9086 62.0914 0 40 0C17.9086 0 0 17.9086 0 40C0 62.0914 17.9086 80 40 80Z" fill="white"/>
</mask>
<g mask="url(#mask0_1806_3273)">
<path d="M0 0H80V80H0V0Z" fill="#D80027"/>
<path d="M40 20.875L44.3125 34.1562H58.2812L46.9844 42.3437L51.2969 55.625L40 47.4219L28.7031 55.6406L33.0156 42.3594L21.7188 34.1406H35.6875L40 20.875Z" fill="#FFDA44"/>
</g>
</g>
<circle cx="40" cy="40" r="37" stroke="url(#paint0_radial_1806_3273)" stroke-opacity="0.12" stroke-width="6"/>
<circle cx="40" cy="40" r="34" fill="url(#paint1_radial_1806_3273)" fill-opacity="0.15"/>
<circle cx="40" cy="40" r="34" fill="url(#paint2_radial_1806_3273)" fill-opacity="0.35"/>
<ellipse cx="40" cy="24.5" rx="24" ry="18.5" fill="url(#paint3_linear_1806_3273)" fill-opacity="0.4"/>
<defs>
<radialGradient id="paint0_radial_1806_3273" cx="0" cy="0" r="1" gradientUnits="userSpaceOnUse" gradientTransform="translate(40 40) rotate(90) scale(40)">
<stop/>
<stop offset="1" stop-color="#666666"/>
</radialGradient>
<radialGradient id="paint1_radial_1806_3273" cx="0" cy="0" r="1" gradientUnits="userSpaceOnUse" gradientTransform="translate(40 40) rotate(90) scale(34 26.4711)">
<stop stop-color="#371313"/>
<stop offset="1" stop-color="#D9D9D9" stop-opacity="0.75"/>
</radialGradient>
<radialGradient id="paint2_radial_1806_3273" cx="0" cy="0" r="1" gradientUnits="userSpaceOnUse" gradientTransform="translate(40 40) rotate(90) scale(34 111.625)">
<stop stop-color="#D9D9D9" stop-opacity="0.75"/>
<stop offset="1" stop-color="#371313"/>
</radialGradient>
<linearGradient id="paint3_linear_1806_3273" x1="40" y1="9.08333" x2="40" y2="43" gradientUnits="userSpaceOnUse">
<stop stop-color="#737373" stop-opacity="0"/>
<stop offset="1" stop-color="#D9D9D9"/>
</linearGradient>
<clipPath id="clip0_1806_3273">
<rect width="80" height="80" fill="white"/>
</clipPath>
</defs>
</svg>
