<svg width="80" height="80" viewBox="0 0 80 80" fill="none" xmlns="http://www.w3.org/2000/svg">
<g clip-path="url(#clip0_1806_3313)">
<mask id="mask0_1806_3313" style="mask-type:alpha" maskUnits="userSpaceOnUse" x="0" y="0" width="80" height="80">
<path d="M40 80C62.0914 80 80 62.0914 80 40C80 17.9086 62.0914 0 40 0C17.9086 0 0 17.9086 0 40C0 62.0914 17.9086 80 40 80Z" fill="white"/>
</mask>
<g mask="url(#mask0_1806_3313)">
<path d="M0 0H7.40625L19.3438 3.28125L29.5625 0H34.7813L40.125 2.59375L45.2187 0H50.4375L61.4375 3.5625L72.625 0H75.0938L77 1.14063L80 0V7.39062L76.8906 19.5781L80 29.5625V34.7813L77.4375 39.5625L80 45.2187V50.4375L77.6406 61.1719L80 72.625V75.1094L78.7813 76.8125L80 80H72.6094L61.5156 77.2656L50.4375 80H45.2187L40.5312 76.9219L34.7813 80H29.5781L19.625 76.8437L7.39062 80H4.90625L3.25 78.75L0 80V72.6094L3.5625 60.2656L0 50.4531V45.2344L3.95312 40.2344L0 34.7813V29.5625L3.46875 19.4687L0 7.375V4.90625L1.25 3.6875L0 0Z" fill="#EEEEEE"/>
<path d="M7.40625 0L29.5625 22.1875V0H7.40625ZM50.4375 0V22.1875L72.625 0H50.4375ZM0 7.375V29.5625H22.1875L0 7.375ZM80 7.39062L57.8281 29.5625H80V7.39062V7.39062ZM0 50.4375V72.6094L22.1719 50.4375H0V50.4375ZM57.8125 50.4375L80 72.625V50.4375H57.8125ZM29.5781 57.8125L7.39062 80H29.5781V57.8125ZM50.4375 57.8281V80H72.6094L50.4375 57.8281Z" fill="#0052B4"/>
<path d="M34.7813 0V34.7813H0V45.2187H34.7813V80H45.2187V45.2187H80V34.7813H45.2187V0H34.7813V0Z" fill="#D80027"/>
<path d="M0 0V4.90625L24.6406 29.5625H29.5625L0 0ZM75.0938 0L50.4375 24.6406V29.5625L80 0H75.0938ZM29.5625 50.4375L0 80H4.90625L29.5625 55.3594V50.4375V50.4375ZM50.4375 50.4375L79.9844 80H80V75.1094L55.3594 50.4375H50.4375V50.4375Z" fill="#D80027"/>
</g>
</g>
<circle cx="40" cy="40" r="37" stroke="url(#paint0_radial_1806_3313)" stroke-opacity="0.12" stroke-width="6"/>
<circle cx="40" cy="40" r="34" fill="url(#paint1_radial_1806_3313)" fill-opacity="0.15"/>
<circle cx="40" cy="40" r="34" fill="url(#paint2_radial_1806_3313)" fill-opacity="0.35"/>
<ellipse cx="40" cy="24.5" rx="24" ry="18.5" fill="url(#paint3_linear_1806_3313)" fill-opacity="0.4"/>
<defs>
<radialGradient id="paint0_radial_1806_3313" cx="0" cy="0" r="1" gradientUnits="userSpaceOnUse" gradientTransform="translate(40 40) rotate(90) scale(40)">
<stop/>
<stop offset="1" stop-color="#666666"/>
</radialGradient>
<radialGradient id="paint1_radial_1806_3313" cx="0" cy="0" r="1" gradientUnits="userSpaceOnUse" gradientTransform="translate(40 40) rotate(90) scale(34 26.4711)">
<stop stop-color="#371313"/>
<stop offset="1" stop-color="#D9D9D9" stop-opacity="0.75"/>
</radialGradient>
<radialGradient id="paint2_radial_1806_3313" cx="0" cy="0" r="1" gradientUnits="userSpaceOnUse" gradientTransform="translate(40 40) rotate(90) scale(34 111.625)">
<stop stop-color="#D9D9D9" stop-opacity="0.75"/>
<stop offset="1" stop-color="#371313"/>
</radialGradient>
<linearGradient id="paint3_linear_1806_3313" x1="40" y1="9.08333" x2="40" y2="43" gradientUnits="userSpaceOnUse">
<stop stop-color="#737373" stop-opacity="0"/>
<stop offset="1" stop-color="#D9D9D9"/>
</linearGradient>
<clipPath id="clip0_1806_3313">
<rect width="80" height="80" fill="white"/>
</clipPath>
</defs>
</svg>
