<svg width="80" height="80" viewBox="0 0 80 80" fill="none" xmlns="http://www.w3.org/2000/svg">
<g clip-path="url(#clip0_1806_3303)">
<mask id="mask0_1806_3303" style="mask-type:alpha" maskUnits="userSpaceOnUse" x="0" y="0" width="80" height="80">
<path d="M40 80C62.0914 80 80 62.0914 80 40C80 17.9086 62.0914 0 40 0C17.9086 0 0 17.9086 0 40C0 62.0914 17.9086 80 40 80Z" fill="white"/>
</mask>
<g mask="url(#mask0_1806_3303)">
<path d="M0 40L40 0H80V8.70313L76.7656 14.0937L80 19.125V29.5625L76.6875 34.6719L80 40V50.4375L76.25 55.3906L80 60.875V71.2969L39.5156 75.7188L0 71.2969V60.875L4.23438 55.6719L0 50.4375V40Z" fill="#EEEEEE"/>
<path d="M40 40H80V29.5625H37.0156L40 40ZM37.0156 19.125H80V8.70312H37.0156V19.125ZM80 80V71.2969H0V80H80ZM0 60.875H80V50.4375H0V60.875Z" fill="#D80027"/>
<path d="M0 0H40V40H0V0Z" fill="#0052B4"/>
<path d="M2.34375 2.26562L1.07812 6.25H-3.125L0.265625 8.71875L-1.03125 12.7031L2.34375 10.2344L5.71875 12.7031L4.4375 8.73438L7.84375 6.25H3.65625L2.34375 2.26562ZM16.6875 2.26562L15.3906 6.25H11.2031L14.5938 8.71875L13.2969 12.7031L16.6875 10.2344L20.0781 12.7031L18.7812 8.73438L22.1875 6.25H18L16.6875 2.26562ZM31.0469 2.26562L29.75 6.26562H25.5625L28.9531 8.73438L27.6562 12.7188L31.0469 10.25L34.4219 12.7031L33.1406 8.75L36.5313 6.25H32.3438L31.0469 2.26562ZM2.34375 13.9375L1.04688 17.9219H-3.125L0.265625 20.3906L-1.03125 24.375L2.34375 21.875L5.71875 24.3281L4.4375 20.375L7.82812 17.875H3.65625L2.34375 13.9375ZM16.6875 13.9375L15.3906 17.9219H11.2188L14.6094 20.3906L13.3125 24.375L16.7031 21.9062L20.0781 24.3594L18.7969 20.4063L22.1875 17.9062H18L16.6875 13.9375ZM31.0313 13.9375L29.7344 17.9219H25.5469L28.9375 20.3906L27.6406 24.375L31.0313 21.9062L34.4062 24.3594L33.125 20.4063L36.5156 17.9062H32.3438L31.0313 13.9375ZM2.34375 25.5625L1.04688 29.5469H-3.125L0.25 32.0312L-1.04687 36.0156L2.34375 33.5313L5.73438 36L4.4375 32.0312L7.82812 29.5469H3.64062L2.34375 25.5625ZM16.6875 25.5625L15.3906 29.5469H11.2031L14.5938 32.0312L13.2969 36.0156L16.6875 33.5469L20.0781 36.0156L18.7812 32.0469L22.1719 29.5625H17.9844L16.6875 25.5625ZM31.0313 25.5625L29.7344 29.5469H25.5469L28.9375 32.0156L27.6406 36L31.0313 33.5313L34.4219 36L33.125 32.0312L36.5156 29.5469H32.3438L31.0313 25.5625Z" fill="#EEEEEE"/>
</g>
</g>
<circle cx="40" cy="40" r="37" stroke="url(#paint0_radial_1806_3303)" stroke-opacity="0.12" stroke-width="6"/>
<circle cx="40" cy="40" r="34" fill="url(#paint1_radial_1806_3303)" fill-opacity="0.15"/>
<circle cx="40" cy="40" r="34" fill="url(#paint2_radial_1806_3303)" fill-opacity="0.35"/>
<ellipse cx="40" cy="24.5" rx="24" ry="18.5" fill="url(#paint3_linear_1806_3303)" fill-opacity="0.4"/>
<defs>
<radialGradient id="paint0_radial_1806_3303" cx="0" cy="0" r="1" gradientUnits="userSpaceOnUse" gradientTransform="translate(40 40) rotate(90) scale(40)">
<stop/>
<stop offset="1" stop-color="#666666"/>
</radialGradient>
<radialGradient id="paint1_radial_1806_3303" cx="0" cy="0" r="1" gradientUnits="userSpaceOnUse" gradientTransform="translate(40 40) rotate(90) scale(34 26.4711)">
<stop stop-color="#371313"/>
<stop offset="1" stop-color="#D9D9D9" stop-opacity="0.75"/>
</radialGradient>
<radialGradient id="paint2_radial_1806_3303" cx="0" cy="0" r="1" gradientUnits="userSpaceOnUse" gradientTransform="translate(40 40) rotate(90) scale(34 111.625)">
<stop stop-color="#D9D9D9" stop-opacity="0.75"/>
<stop offset="1" stop-color="#371313"/>
</radialGradient>
<linearGradient id="paint3_linear_1806_3303" x1="40" y1="9.08333" x2="40" y2="43" gradientUnits="userSpaceOnUse">
<stop stop-color="#737373" stop-opacity="0"/>
<stop offset="1" stop-color="#D9D9D9"/>
</linearGradient>
<clipPath id="clip0_1806_3303">
<rect width="80" height="80" fill="white"/>
</clipPath>
</defs>
</svg>
